<svg height="480pt" viewBox="-8 0 480 480.25782" width="480pt" xmlns="http://www.w3.org/2000/svg"><path d="m461.671875 206.542969-82.289063-192c-3.78125-8.820313-12.457031-14.542969-22.054687-14.542969h-250.914063c-9.597656 0-18.273437 5.722656-22.054687 14.542969l-82.289063 192c-3.179687 7.417969-2.417968 15.933593 2.023438 22.671875 4.441406 6.734375 11.972656 10.785156 20.039062 10.785156h84c-44.972656 63.0625-35.335937 149.855469 22.378907 201.515625 57.710937 51.65625 145.039062 51.65625 202.75 0 57.714843-51.660156 67.351562-138.453125 22.375-201.515625h84c8.070312 0 15.601562-4.050781 20.042969-10.785156 4.441406-6.738282 5.203124-15.253906 2.023437-22.671875zm-93.800781 121.457031c.105468 60.25-39.441406 113.386719-97.1875 130.582031-57.742188 17.195313-119.917969-5.648437-152.789063-56.140625-32.871093-50.492187-28.601562-116.59375 10.488281-162.441406h206.976563c20.941406 24.542969 32.464844 55.738281 32.511719 88zm78.398437-107.59375c-1.464843 2.261719-3.984375 3.617188-6.679687 3.59375h-415.457032c-2.691406.003906-5.203124-1.347656-6.6875-3.59375-1.484374-2.25-1.734374-5.09375-.671874-7.566406l82.289062-192c1.261719-2.9375 4.152344-4.839844 7.351562-4.839844h250.914063c3.195313 0 6.085937 1.902344 7.351563 4.839844l82.285156 192c1.082031 2.476562.816406 5.332031-.695313 7.566406zm0 0"/><path d="m335.871094 328c0 5.066406-.363282 10.128906-1.097656 15.144531-.644532 4.371094 2.378906 8.4375 6.753906 9.078125.386718.0625.777344.089844 1.167968.089844 3.960938-.003906 7.324219-2.910156 7.902344-6.832031.851563-5.789063 1.273438-11.628907 1.273438-17.480469 0-4.417969-3.582032-8-8-8-4.417969 0-8 3.582031-8 8zm0 0"/><path d="m333.6875 306.640625c.757812 3.71875 4.027344 6.390625 7.824219 6.398437.550781.003907 1.097656-.054687 1.636719-.167968 4.324218-.902344 7.09375-5.140625 6.195312-9.464844-4.015625-19.117188-12.632812-36.964844-25.105469-52-2.875-3.164062-7.730469-3.507812-11.023437-.78125-3.292969 2.726562-3.859375 7.558594-1.289063 10.976562 10.804688 13.023438 18.269531 28.480469 21.761719 45.039063zm0 0"/></svg>